/* XPM */
static char *maximize_pressed[] = {
/* columns rows colors chars-per-pixel */
"20 10 3 1 ",
"  c #A1D569",
". c #A3BE8C s active_color_1",
"X c #AA55FF",
/* pixels */
"                    ",
"                    ",
"                    ",
"                    ",
"                    ",
"                    ",
"                    ",
"                    ",
"....................",
"...................."
};
