/* XPM */
static char *title_1_active[] = {
/* columns rows colors chars-per-pixel */
"10 10 3 1 ",
"  c #2F343F s inactive_shadow_1",
". c #A3BE8C s active_color_1",
"X c white",
/* pixels */
"          ",
"          ",
"          ",
"          ",
"          ",
"          ",
"          ",
"          ",
"..........",
".........."
};
