/* XPM */
static char *close_prelight[] = {
/* columns rows colors chars-per-pixel */
"20 10 3 1 ",
"  c #EF6B7B",
". c #EBCB8B s active_hilight_1",
"X c white",
/* pixels */
"                    ",
"                    ",
"                    ",
"                    ",
"                    ",
"                    ",
"                    ",
"                    ",
"....................",
"...................."
};
