/* XPM */
static char *maximize_prelight[] = {
/* columns rows colors chars-per-pixel */
"20 5 3 1 ",
"  c #A1D569",
". c #A3BE8C s active_hilight_1",
"X c #AA55FF",
/* pixels */
"                    ",
"                    ",
"                    ",
"....................",
"...................."
};
