/* XPM */
static char *bottom_inactive[] = {
/* columns rows colors chars-per-pixel */
"5 5 3 1 ",
"  c #A3BE8C s inactive_color_1",
". c #2F343F s inactive_shadow_1",
"X c white",
/* pixels */
"     ",
"     ",
".....",
".....",
"....."
};
