/* XPM */
static char *close_pressed[] = {
/* columns rows colors chars-per-pixel */
"20 5 3 1 ",
"  c #EF6B7B",
". c #EBCB8B s active_color_1",
"X c white",
/* pixels */
"                    ",
"                    ",
"                    ",
"....................",
"...................."
};
