/* XPM */
static char *hide_prelight[] = {
/* columns rows colors chars-per-pixel */
"20 5 3 1 ",
"  c #F59335",
". c #EBCB8B s active_color_1",
"X c white",
/* pixels */
"                    ",
"                    ",
"                    ",
"....................",
"...................."
};
