/* XPM */
static char *hide_prelight[] = {
/* columns rows colors chars-per-pixel */
"20 10 3 1 ",
"  c #F59335",
". c #EBCB8B s active_hilight_1",
"X c white",
/* pixels */
"                    ",
"                    ",
"                    ",
"                    ",
"                    ",
"                    ",
"                    ",
"                    ",
"....................",
"...................."
};
